<svg width="33" height="33" viewBox="0 0 33 33" fill="none" xmlns="http://www.w3.org/2000/svg">
<circle cx="16.5" cy="16.5" r="16.5" fill="white"/>
<path d="M16.5333 20.8666C16.4111 20.7444 16.3471 20.5888 16.3413 20.4C16.336 20.2111 16.3944 20.0555 16.5166 19.9333L19.7833 16.6666H12.3333C12.1444 16.6666 11.986 16.6026 11.858 16.4746C11.7304 16.3471 11.6666 16.1888 11.6666 16C11.6666 15.8111 11.7304 15.6526 11.858 15.5246C11.986 15.3971 12.1444 15.3333 12.3333 15.3333H19.7833L16.5166 12.0666C16.3944 11.9444 16.336 11.7888 16.3413 11.6C16.3471 11.4111 16.4111 11.2555 16.5333 11.1333C16.6555 11.0111 16.8111 10.95 17 10.95C17.1888 10.95 17.3444 11.0111 17.4666 11.1333L21.8666 15.5333C21.9333 15.5888 21.9806 15.6582 22.0086 15.7413C22.0362 15.8248 22.05 15.9111 22.05 16C22.05 16.0888 22.0362 16.1722 22.0086 16.25C21.9806 16.3277 21.9333 16.4 21.8666 16.4666L17.4666 20.8666C17.3444 20.9888 17.1888 21.05 17 21.05C16.8111 21.05 16.6555 20.9888 16.5333 20.8666V20.8666Z" fill="#FCAE31"/>
</svg>
